<svg width="379" height="93" viewBox="0 0 379 93" fill="none" xmlns="http://www.w3.org/2000/svg">
<path d="M42.3828 71V39.5137H14.8203V71H0.225586V0.466797H14.8203V27.3594H42.3828V0.466797H57.0254V71H42.3828ZM113.538 25.4453C117.94 30.9642 120.142 37.488 120.142 45.0166C120.142 52.6729 117.94 59.2285 113.538 64.6836C109.136 70.1068 102.452 72.8184 93.4883 72.8184C84.5241 72.8184 77.8408 70.1068 73.4385 64.6836C69.0361 59.2285 66.835 52.6729 66.835 45.0166C66.835 37.488 69.0361 30.9642 73.4385 25.4453C77.8408 19.9264 84.5241 17.167 93.4883 17.167C102.452 17.167 109.136 19.9264 113.538 25.4453ZM93.4404 28.6992C89.4528 28.6992 86.3743 30.1188 84.2051 32.958C82.0677 35.7653 80.999 39.7848 80.999 45.0166C80.999 50.2484 82.0677 54.2839 84.2051 57.123C86.3743 59.9622 89.4528 61.3818 93.4404 61.3818C97.4281 61.3818 100.491 59.9622 102.628 57.123C104.765 54.2839 105.834 50.2484 105.834 45.0166C105.834 39.7848 104.765 35.7653 102.628 32.958C100.491 30.1188 97.4281 28.6992 93.4404 28.6992ZM173.448 25.4453C177.851 30.9642 180.052 37.488 180.052 45.0166C180.052 52.6729 177.851 59.2285 173.448 64.6836C169.046 70.1068 162.363 72.8184 153.398 72.8184C144.434 72.8184 137.751 70.1068 133.349 64.6836C128.946 59.2285 126.745 52.6729 126.745 45.0166C126.745 37.488 128.946 30.9642 133.349 25.4453C137.751 19.9264 144.434 17.167 153.398 17.167C162.363 17.167 169.046 19.9264 173.448 25.4453ZM153.351 28.6992C149.363 28.6992 146.285 30.1188 144.115 32.958C141.978 35.7653 140.909 39.7848 140.909 45.0166C140.909 50.2484 141.978 54.2839 144.115 57.123C146.285 59.9622 149.363 61.3818 153.351 61.3818C157.338 61.3818 160.401 59.9622 162.538 57.123C164.675 54.2839 165.744 50.2484 165.744 45.0166C165.744 39.7848 164.675 35.7653 162.538 32.958C160.401 30.1188 157.338 28.6992 153.351 28.6992ZM237.713 71H221.252L208.763 48.7012L203.116 54.5869V71H189.718V0.706055H203.116V38.7002L220.104 19.0811H236.995L218.764 39.0352L237.713 71ZM258.433 18.8418V71H244.604V18.8418H258.433ZM258.433 0.0361328V12.6211H244.604V0.0361328H258.433ZM296.235 28.9385C291.61 28.9385 288.436 30.9004 286.713 34.8242C285.82 36.8978 285.373 39.5456 285.373 42.7676V71H271.783V18.9375H284.942V26.5459C286.697 23.8662 288.356 21.9362 289.919 20.7559C292.726 18.6504 296.283 17.5977 300.59 17.5977C305.981 17.5977 310.383 19.0173 313.797 21.8564C317.242 24.6637 318.965 29.3372 318.965 35.877V71H304.992V39.2744C304.992 36.5309 304.625 34.4255 303.892 32.958C302.552 30.2783 300 28.9385 296.235 28.9385ZM346.336 80.1396C347.803 81.3838 350.276 82.0059 353.753 82.0059C358.666 82.0059 361.951 80.363 363.61 77.0771C364.695 74.9717 365.237 71.4307 365.237 66.4541V63.1045C363.929 65.3376 362.526 67.0124 361.026 68.1289C358.315 70.2025 354.79 71.2393 350.451 71.2393C343.752 71.2393 338.393 68.8945 334.373 64.2051C330.385 59.4837 328.392 53.1035 328.392 45.0645C328.392 37.3125 330.322 30.8047 334.182 25.541C338.042 20.2454 343.513 17.5977 350.595 17.5977C353.211 17.5977 355.492 17.9964 357.438 18.7939C360.755 20.1657 363.435 22.6859 365.477 26.3545V18.8418H378.731V68.3203C378.731 75.0514 377.599 80.1237 375.334 83.5371C371.442 89.4069 363.977 92.3418 352.939 92.3418C346.272 92.3418 340.833 91.0339 336.622 88.418C332.411 85.8021 330.082 81.8942 329.636 76.6943H344.47C344.853 78.2894 345.475 79.4378 346.336 80.1396ZM344.039 53.1992C345.889 57.6016 349.207 59.8027 353.992 59.8027C357.182 59.8027 359.878 58.6064 362.079 56.2139C364.28 53.7894 365.381 49.9453 365.381 44.6816C365.381 39.737 364.328 35.9727 362.223 33.3887C360.149 30.8047 357.358 29.5127 353.849 29.5127C349.063 29.5127 345.762 31.7617 343.943 36.2598C342.986 38.6523 342.508 41.6032 342.508 45.1123C342.508 48.1429 343.018 50.8385 344.039 53.1992Z" fill="white"/>
</svg>
